<?xml version="1.0" encoding="UTF-8" standalone="no"?>
<!-- Created with Inkscape (http://www.inkscape.org/) -->

<svg
   width="297mm"
   height="210mm"
   viewBox="0 0 1122.5197 793.70081"
   version="1.1"
   id="svg1"
   inkscape:version="1.3.2 (091e20e, 2023-11-25)"
   sodipodi:docname="logo.svg"
   xmlns:inkscape="http://www.inkscape.org/namespaces/inkscape"
   xmlns:sodipodi="http://sodipodi.sourceforge.net/DTD/sodipodi-0.dtd"
   xmlns="http://www.w3.org/2000/svg"
   xmlns:svg="http://www.w3.org/2000/svg">
  <sodipodi:namedview
     id="namedview1"
     pagecolor="#505050"
     bordercolor="#eeeeee"
     borderopacity="1"
     inkscape:showpageshadow="0"
     inkscape:pageopacity="0"
     inkscape:pagecheckerboard="0"
     inkscape:deskcolor="#505050"
     inkscape:document-units="mm"
     inkscape:zoom="0.72754429"
     inkscape:cx="459.76582"
     inkscape:cy="301.69984"
     inkscape:window-width="1712"
     inkscape:window-height="1070"
     inkscape:window-x="0"
     inkscape:window-y="42"
     inkscape:window-maximized="0"
     inkscape:current-layer="layer1" />
  <defs
     id="defs1" />
  <g
     inkscape:label="Layer 1"
     inkscape:groupmode="layer"
     id="layer1">
    <g
       transform="matrix(0.33250169,0,0,-0.31900833,-278.57836,1234.9302)"
       fill="#a8a8a8"
       stroke="none"
       id="g16"
       style="fill:#37fcb8;fill-opacity:1">
      <path
         d="m 2512,3838 c -7,-7 -12,-21 -12,-31 0,-11 -20,-43 -45,-72 -40,-47 -48,-52 -85,-52 -62,0 -90,-31 -90,-101 0,-52 -1,-54 -22,-48 -58,17 -118,18 -160,4 -43,-15 -45,-15 -75,11 -17,14 -33,34 -36,44 -4,9 -16,17 -28,17 -13,0 -34,14 -49,31 -23,28 -29,30 -48,20 -44,-24 -17,-90 32,-77 15,4 28,0 36,-9 7,-8 18,-15 24,-15 7,0 25,-14 41,-30 28,-29 28,-31 11,-48 -16,-16 -18,-16 -39,10 -12,15 -30,38 -40,52 -22,32 -55,33 -91,5 -68,-53 6,-151 84,-109 25,13 31,-7 21,-72 -5,-29 -7,-56 -5,-59 7,-12 -128,-109 -141,-101 -7,4 -76,59 -154,122 -116,95 -140,119 -135,135 4,11 9,41 11,68 5,43 2,50 -30,82 -30,30 -42,35 -82,35 -40,0 -52,-5 -81,-34 -29,-29 -34,-41 -34,-79 0,-81 75,-138 152,-117 17,5 36,6 43,2 7,-4 73,-56 147,-117 130,-106 135,-111 121,-132 -8,-12 -12,-30 -9,-40 9,-30 -91,-95 -147,-97 -44,0 -44,0 -130,101 -58,67 -85,107 -81,117 4,10 0,18 -10,22 -9,3 -13,10 -11,15 9,14 -33,49 -59,49 -27,0 -56,-24 -56,-46 0,-26 39,-56 63,-48 12,4 24,11 25,15 2,5 11,9 20,9 14,0 15,-2 2,-10 -12,-8 -12,-11 1,-27 8,-10 54,-64 102,-119 49,-57 87,-111 87,-122 0,-12 9,-26 20,-32 18,-10 20,-21 20,-114 0,-87 -3,-105 -16,-110 -11,-4 -54,18 -123,63 -95,62 -107,73 -112,104 -9,53 -34,85 -78,97 -76,20 -137,-36 -126,-115 6,-40 5,-40 -70,-98 -71,-55 -78,-58 -115,-52 -34,6 -43,3 -65,-19 -52,-52 -22,-130 50,-130 51,0 77,28 74,81 -3,42 -3,43 76,102 74,56 80,58 101,44 13,-8 40,-13 62,-12 30,2 50,-4 80,-24 51,-33 112,-87 112,-97 0,-9 -135,-93 -205,-128 -25,-12 -52,-18 -71,-15 -23,4 -35,0 -45,-14 -8,-10 -23,-18 -33,-18 -18,0 -19,-8 -17,-127 2,-106 0,-128 -12,-128 -8,0 -26,-9 -41,-21 -33,-26 -36,-79 -6,-109 23,-23 76,-26 104,-5 16,12 24,10 72,-22 38,-25 51,-40 44,-47 -17,-17 -12,-74 10,-96 27,-27 66,-25 95,5 30,30 31,54 4,89 -15,19 -30,26 -54,26 -49,0 -145,73 -145,110 0,15 -10,36 -25,50 -24,22 -25,29 -25,131 0,109 7,132 35,109 21,-17 59,-8 70,18 5,12 17,24 25,27 9,3 65,34 125,69 100,59 111,64 127,50 18,-17 49,-12 68,11 17,20 56,19 78,-2 10,-10 27,-23 38,-29 17,-10 19,-26 22,-162 3,-125 1,-154 -12,-175 -13,-18 -14,-31 -7,-50 10,-25 5,-30 -99,-109 -80,-61 -116,-82 -134,-80 -26,3 -46,-21 -46,-56 0,-38 63,-32 78,8 10,27 223,186 257,192 24,5 46,-5 125,-56 52,-34 107,-70 123,-79 15,-10 27,-26 27,-35 0,-26 42,-62 72,-62 14,0 37,10 52,21 l 27,21 105,-63 c 90,-54 104,-66 99,-84 -4,-11 -9,-45 -12,-76 -4,-43 -1,-64 15,-95 49,-95 148,-137 237,-100 19,8 35,11 35,7 0,-5 9,-11 20,-14 37,-10 71,41 45,67 -10,10 -15,35 -15,75 v 61 h -65 -65 v -30 c 0,-25 4,-30 25,-30 20,0 25,-5 25,-24 0,-42 -58,-49 -95,-11 -37,36 -35,102 3,138 32,31 49,33 80,11 21,-14 25,-14 57,6 21,13 32,26 29,35 -10,24 -89,48 -139,42 -62,-7 -55,10 22,48 41,20 66,40 78,63 18,32 18,33 -5,57 -29,31 -22,31 33,4 49,-25 116,-95 117,-124 0,-11 -23,-43 -52,-72 -44,-45 -50,-54 -38,-68 12,-14 17,-12 53,22 21,21 43,48 48,61 24,61 53,-5 46,-105 -8,-102 -44,-179 -118,-247 -101,-94 -227,-137 -352,-122 -49,6 -57,10 -51,24 16,39 15,68 -5,93 -27,34 -63,41 -107,19 l -34,-18 -24,41 c -34,60 -48,110 -56,202 l -7,80 -2,-82 c -1,-94 23,-185 62,-237 17,-21 24,-41 20,-54 -4,-15 4,-31 26,-53 27,-26 37,-30 64,-25 47,10 57,10 113,-2 136,-29 318,48 416,176 42,56 68,150 68,247 0,46 4,86 9,89 5,4 34,-32 65,-78 65,-98 151,-180 235,-225 32,-17 63,-31 67,-31 5,1 -14,13 -43,28 -68,36 -137,92 -198,164 -54,63 -105,144 -105,168 0,9 49,64 108,123 103,103 110,107 136,97 57,-21 130,-8 172,31 21,19 24,20 53,5 31,-16 31,-16 11,-36 -35,-35 -19,-77 37,-94 25,-8 63,8 63,26 0,9 -3,9 -12,0 -27,-27 -78,-7 -78,30 0,17 27,38 49,38 19,0 51,-44 51,-69 0,-32 -8,-45 -37,-60 -39,-20 -80,-13 -118,20 -42,37 -47,22 -7,-22 37,-41 102,-50 150,-20 42,27 57,65 45,113 -6,23 -6,41 -1,46 5,5 8,20 6,33 -4,31 -38,36 -62,10 -18,-20 -18,-20 -63,2 -35,17 -43,26 -39,42 3,11 6,30 6,43 0,19 5,22 43,22 24,0 48,-5 54,-11 7,-7 23,-9 37,-5 20,5 26,13 26,35 0,16 -6,31 -15,35 -18,6 -45,-2 -45,-15 0,-5 -22,-9 -49,-9 -45,0 -51,3 -70,35 -27,46 -76,75 -131,76 -42,1 -49,6 -102,63 l -57,62 52,41 c 29,22 87,66 130,96 66,47 81,55 96,45 28,-17 53,-3 49,29 -4,36 -41,44 -60,13 -7,-12 -48,-46 -90,-75 -42,-30 -101,-75 -132,-100 -31,-25 -63,-45 -71,-45 -8,0 17,-31 55,-69 46,-44 67,-72 60,-76 -7,-5 -39,19 -79,59 -96,95 -99,109 -64,307 22,127 30,156 40,147 18,-15 30,-1 17,20 -28,44 112,150 201,152 23,0 45,4 51,10 5,5 15,5 23,1 9,-6 -8,-16 -55,-30 -79,-26 -149,-60 -184,-90 -19,-17 -12,-15 30,8 62,33 160,68 228,81 42,7 53,5 124,-31 l 77,-39 -17,-30 c -9,-16 -23,-30 -29,-30 -7,0 -13,-7 -13,-15 0,-8 7,-15 15,-15 8,0 15,6 15,13 0,7 13,25 28,40 l 29,27 76,-57 c 42,-32 79,-66 82,-75 8,-23 51,-34 70,-18 19,16 19,49 1,69 -8,9 -17,53 -21,103 -7,86 -6,88 17,97 66,26 96,110 58,169 -25,41 -81,66 -126,57 -48,-9 -94,-65 -94,-116 0,-45 5,-42 -151,-89 -82,-24 -102,-27 -128,-17 -25,9 -29,15 -25,37 8,38 -29,80 -70,80 h -32 l -62,185 c -59,180 -60,186 -45,214 14,24 15,32 3,60 -22,53 -76,66 -115,26 -30,-29 -32,-63 -7,-96 17,-21 20,-51 25,-241 l 7,-216 -30,-7 c -25,-6 -35,-1 -64,29 -39,42 -80,47 -114,16 -27,-25 -28,-42 -4,-63 38,-35 66,-37 136,-11 37,13 72,22 76,19 5,-3 37,1 71,10 71,19 85,16 91,-18 4,-23 -2,-28 -60,-56 -65,-30 -65,-30 -90,-10 -31,24 -67,24 -89,1 -17,-17 -23,-15 -148,43 -71,33 -137,68 -146,79 -8,10 -25,19 -36,20 -13,1 -50,34 -96,85 l -75,84 28,24 c 15,12 33,23 39,23 6,0 11,5 11,10 0,16 -50,12 -56,-5 -5,-11 -11,-12 -24,-5 -27,14 -30,13 -30,-14 0,-48 -30,-43 -70,13 l -18,26 h 40 c 33,0 45,7 70,34 24,27 29,39 24,64 -3,17 -13,38 -20,46 -12,14 -8,23 34,68 33,36 54,51 64,47 22,-8 46,13 46,40 0,26 -18,46 -40,46 -9,0 -21,-5 -28,-12 z m 628,-383 c 48,-143 59,-189 51,-199 -7,-8 -41,-22 -77,-32 -56,-15 -67,-15 -75,-3 -5,8 -9,71 -9,140 0,69 -3,160 -6,202 l -7,77 h 31 30 z m -878,-26 c 53,-38 71,-109 44,-174 -14,-33 -16,-34 -44,-24 -25,8 -38,6 -71,-10 -22,-12 -47,-21 -56,-21 -57,0 -122,85 -109,143 10,48 34,78 79,99 49,23 113,18 157,-13 z m 185,-31 c 11,-18 45,-61 76,-94 31,-34 57,-68 57,-75 0,-15 -137,-169 -150,-169 -4,0 -11,12 -15,27 -3,15 -16,40 -27,56 -20,28 -20,31 -5,76 24,71 26,92 17,141 -7,37 -6,47 8,58 20,15 17,17 39,-20 z m -1116,-78 c 26,-15 24,-38 -5,-52 -33,-14 -56,-4 -56,26 0,33 26,44 61,26 z m 1593,-99 28,-29 -37,-11 c -40,-11 -73,-3 -94,23 -19,23 3,46 43,46 23,0 41,-9 60,-29 z m -927,-40 32,-38 -13,-63 -12,-64 -70,65 c -38,35 -69,67 -69,72 0,7 86,68 95,66 3,0 19,-18 37,-38 z m 1646,16 c 3,-8 -18,-40 -47,-72 l -51,-58 -70,36 -70,35 110,35 c 131,42 122,40 128,24 z m -850,-57 c 104,-48 121,-60 138,-92 24,-47 24,-51 -5,-183 -13,-61 -27,-127 -31,-148 -4,-28 -10,-37 -20,-33 -8,3 -14,2 -14,-2 3,-19 -2,-23 -16,-12 -8,7 -15,20 -15,29 0,10 -6,25 -13,35 -12,16 -15,16 -53,-5 -98,-54 -147,43 -51,101 42,26 59,25 96,-6 23,-19 31,-22 31,-10 0,23 -40,46 -82,46 -29,0 -47,-8 -75,-33 -44,-41 -50,-89 -14,-119 28,-22 50,-23 97,-3 40,17 54,13 54,-14 0,-10 7,-24 15,-31 8,-7 15,-23 15,-35 0,-19 -14,-28 -92,-58 -135,-51 -126,-58 -252,187 -103,197 -105,202 -93,236 7,20 51,73 98,120 78,79 87,85 124,85 27,-1 80,-19 158,-55 z m 919,13 c 19,-6 24,-24 33,-118 6,-62 5,-71 -12,-81 -16,-10 -27,-5 -69,30 -28,22 -60,48 -73,56 l -23,15 48,58 c 33,39 53,55 64,51 8,-3 22,-8 32,-11 z m -1472,-42 c -16,-30 -12,-63 11,-100 20,-33 20,-35 3,-48 -34,-25 -83,-16 -121,22 -30,30 -34,39 -31,77 l 3,43 h 50 c 28,0 59,6 70,12 27,16 27,16 15,-6 z m -323,-53 c 51,-42 60,-54 52,-69 -16,-30 -10,-57 16,-78 l 26,-19 -53,-89 c -59,-100 -62,-102 -103,-104 -17,-1 -22,-3 -12,-6 27,-7 20,-23 -10,-23 -45,0 -77,11 -61,21 10,7 9,9 -4,9 -9,0 -29,12 -43,26 -22,22 -33,26 -66,21 l -39,-5 v 110 c 0,126 4,134 92,199 35,27 62,39 84,39 18,0 36,5 39,10 10,16 17,13 82,-42 z m 99,-107 c 0,-28 -4,-37 -14,-33 -19,7 -31,44 -21,64 16,29 36,10 35,-31 z m 127,-56 c 47,-19 108,-19 154,0 34,14 38,14 47,-2 55,-90 203,-379 198,-384 -4,-3 -29,-14 -57,-24 -27,-10 -113,-43 -190,-73 -148,-59 -186,-64 -237,-34 -20,12 -28,24 -28,44 0,33 24,94 48,123 12,14 9,13 -10,-4 -32,-28 -46,-66 -50,-136 -2,-42 0,-50 14,-50 9,0 30,-13 46,-28 33,-32 46,-34 64,-9 17,24 408,177 408,160 0,-3 -99,-89 -219,-192 -219,-187 -219,-188 -271,-191 -51,-2 -58,1 -169,74 -153,99 -151,96 -151,314 v 167 l 56,-6 c 40,-5 63,-14 80,-31 31,-31 70,-27 97,9 20,27 20,29 4,64 l -18,36 47,84 c 32,56 54,84 65,84 10,0 21,5 24,10 8,13 6,13 48,-5 z m -708,-100 c 112,-70 118,-76 70,-68 -42,7 -189,109 -179,124 3,5 8,7 12,5 4,-2 48,-30 97,-61 z m 165,-95 c 0,-5 -12,-10 -27,-9 -25,0 -26,1 -8,9 27,12 35,12 35,0 z m 1380,-235 c 49,-57 51,-62 45,-102 -3,-23 -1,-61 5,-84 l 12,-42 -128,-128 -128,-128 -45,47 c -25,26 -65,56 -88,66 -24,11 -43,22 -43,26 0,31 51,291 62,312 10,22 35,37 123,72 84,34 113,42 121,33 7,-7 35,-39 64,-72 z m -382,-45 c 37,-16 36,-11 4,-200 -17,-92 -18,-95 -47,-101 l -30,-7 29,-1 c 28,-1 28,-1 12,-26 -19,-28 -21,-66 -5,-82 9,-9 0,-15 -32,-23 -53,-14 -116,-49 -147,-83 l -23,-25 -102,64 c -56,35 -106,65 -111,67 -33,11 58,88 167,140 43,21 66,37 64,47 -4,26 -36,23 -47,-4 -5,-14 -14,-26 -19,-26 -5,0 -46,-24 -90,-54 -95,-63 -120,-55 -41,13 216,186 376,320 380,317 3,-1 20,-9 38,-16 z"
         fill="#a8a8a8"
         id="path1"
         style="fill:#37fcb8;fill-opacity:1" />
      <path
         d="m 2138,3349 c -22,-12 -22,-27 -2,-67 19,-39 35,-40 52,-5 17,38 15,61 -7,73 -23,12 -22,12 -43,-1 z"
         fill="#a8a8a8"
         id="path2"
         style="fill:#37fcb8;fill-opacity:1" />
      <path
         d="m 2443,2123 c 15,-2 39,-2 55,0 15,2 2,4 -28,4 -30,0 -43,-2 -27,-4 z"
         fill="#a8a8a8"
         id="path3"
         style="fill:#37fcb8;fill-opacity:1" />
      <path
         d="m 2363,2113 c 9,-2 25,-2 35,0 9,3 1,5 -18,5 -19,0 -27,-2 -17,-5 z"
         fill="#a8a8a8"
         id="path4"
         style="fill:#37fcb8;fill-opacity:1" />
      <path
         d="m 2565,3505 -30,-13 43,-1 c 30,-1 42,3 40,11 -6,18 -20,19 -53,3 z"
         fill="#a8a8a8"
         id="path5"
         style="fill:#37fcb8;fill-opacity:1" />
      <path
         d="m 3776,2810 c 3,-14 8,-67 11,-118 l 5,-93 -53,33 c -115,73 -151,83 -289,83 -97,0 -133,-4 -160,-17 l -35,-17 45,7 c 94,14 222,7 293,-17 275,-93 438,-367 372,-626 -52,-206 -202,-363 -399,-420 -87,-25 -247,-17 -341,18 -78,29 -94,28 -44,-3 60,-36 155,-60 241,-60 298,0 543,221 589,530 l 11,80 h 39 c 53,0 50,18 -3,22 l -43,3 -8,50 c -12,74 -71,186 -137,257 l -57,63 -6,80 c -3,44 -13,100 -21,125 -9,25 -13,34 -10,20 z"
         fill="#a8a8a8"
         id="path6"
         style="fill:#37fcb8;fill-opacity:1" />
      <path
         d="m 4112,2268 c -7,-7 -12,-18 -12,-26 0,-9 6,-7 18,8 37,45 68,-4 54,-85 -9,-47 -37,-60 -51,-23 l -10,23 v -22 c -1,-33 35,-50 60,-27 15,13 19,31 19,79 0,65 -11,85 -45,85 -12,0 -26,-5 -33,-12 z"
         fill="#a8a8a8"
         id="path7"
         style="fill:#37fcb8;fill-opacity:1" />
      <path
         d="m 3887,1766 c -13,-33 16,-62 49,-49 9,3 14,15 12,32 -2,20 -9,27 -29,29 -17,2 -29,-3 -32,-12 z"
         fill="#a8a8a8"
         id="path8"
         style="fill:#37fcb8;fill-opacity:1" />
      <path
         d="m 3821,1711 c -19,-12 -6,-43 16,-39 10,2 18,12 18,22 0,22 -14,29 -34,17 z"
         fill="#a8a8a8"
         id="path9"
         style="fill:#37fcb8;fill-opacity:1" />
      <path
         d="m 3756,1662 c -3,-6 -1,-14 5,-17 15,-10 25,3 12,16 -7,7 -13,7 -17,1 z"
         fill="#a8a8a8"
         id="path10"
         style="fill:#37fcb8;fill-opacity:1" />
      <path
         d="m 3702,1614 c 2,-11 11,-20 22,-22 13,-3 17,1 14,14 -2,11 -11,20 -22,22 -13,3 -17,-1 -14,-14 z"
         fill="#a8a8a8"
         id="path11"
         style="fill:#37fcb8;fill-opacity:1" />
      <path
         d="m 3642,1598 c -8,-8 -9,-15 -1,-25 18,-21 41,-16 37,9 -4,26 -19,33 -36,16 z"
         fill="#a8a8a8"
         id="path12"
         style="fill:#37fcb8;fill-opacity:1" />
      <path
         d="m 3297,1574 c -13,-13 -7,-42 10,-48 23,-9 40,10 27,31 -12,20 -27,26 -37,17 z"
         fill="#a8a8a8"
         id="path13"
         style="fill:#37fcb8;fill-opacity:1" />
      <path
         d="m 3557,1573 c -14,-13 -7,-33 11,-33 24,0 32,8 25,26 -5,15 -25,19 -36,7 z"
         fill="#a8a8a8"
         id="path14"
         style="fill:#37fcb8;fill-opacity:1" />
      <path
         d="m 3400,1560 c 0,-5 7,-10 16,-10 8,0 12,5 9,10 -3,6 -10,10 -16,10 -5,0 -9,-4 -9,-10 z"
         fill="#a8a8a8"
         id="path15"
         style="fill:#37fcb8;fill-opacity:1" />
      <path
         d="m 3485,1560 c -3,-5 -1,-10 4,-10 6,0 11,5 11,10 0,6 -2,10 -4,10 -3,0 -8,-4 -11,-10 z"
         fill="#a8a8a8"
         id="path16"
         style="fill:#37fcb8;fill-opacity:1" />
    </g>
  </g>
</svg>
